<svg width="30" height="30" xmlns="http://www.w3.org/2000/svg"><defs><filter id="a"><feColorMatrix in="SourceGraphic" values="0 0 0 0 1.000000 0 0 0 0 1.000000 0 0 0 0 1.000000 0 0 0 1.000000 0"/></filter></defs><g transform="translate(-17 -12)" filter="url(#a)" fill="none" fill-rule="evenodd"><path d="M45.344 12H18.656C17.74 12 17 12.741 17 13.656v26.688c0 .915.741 1.656 1.656 1.656h14.368V30.382h-3.91v-4.527h3.91v-3.34c0-3.874 2.367-5.984 5.823-5.984 1.656 0 3.08.123 3.494.178v4.05l-2.398.001c-1.88 0-2.244.893-2.244 2.204v2.89h4.484l-.584 4.528h-3.9V42h7.645C46.26 42 47 41.259 47 40.344V13.656C47 12.74 46.259 12 45.344 12" fill="#181818"/></g></svg>