<svg width="38" height="30" xmlns="http://www.w3.org/2000/svg"><g fill="#FFF" fill-rule="evenodd"><path d="M36.15 19.05v-.45H36v.3l-.15-.3h-.15v.45h.15v-.3l.15.3.15-.3v.3zm-.75 0v-.3h.15v-.15h-.3v.15h.15v.3zM7.8 27.45c0-.45.45-.9.9-.9s.9.45.9.9-.45.9-.9.9c-.45.15-.9-.3-.9-.9 0 .15 0 0 0 0zm2.4 0v-1.5h-.6v.3c-.3-.3-.6-.45-.9-.45-.9 0-1.5.75-1.5 1.5s.75 1.5 1.5 1.5c.3 0 .75-.15.9-.45v.3h.6v-1.2zm22.2 0c0-.45.45-.9.9-.9s.9.45.9.9-.45.9-.9.9c-.6.15-.9-.3-.9-.9 0 .15 0 0 0 0zm3.45 1.2s.15 0 0 0c.15.15.15.15 0 0l.15.15.15.15-.15-.15v.15l-.15-.3zm0 .45H36c.15-.15.15-.15 0-.3h-.15H35.4c-.15.15-.15.15 0 .3h.45c-.15 0 0 0 0 0zm0-.6c.15 0 .15 0 .15.15v.6c0 .15 0 0-.15 0h-.15c-.15 0-.3 0-.3-.15v-.3-.15c.3 0 .3 0 .45-.15-.15 0 0 0 0 0zm-1.05-1.05v-2.7h-.6v1.5c-.3-.3-.6-.45-.9-.45-.9 0-1.65.75-1.65 1.5s.75 1.5 1.65 1.5c.3 0 .75-.15.9-.45v.3h.6v-1.2zm-16.5-.9c.45 0 .75.3.75.75H17.4c.15-.45.45-.75.9-.75zm0-.6c-.9 0-1.5.75-1.5 1.65 0 .9.75 1.5 1.65 1.5.45 0 .9-.15 1.2-.45l-.3-.45c-.3.15-.6.3-.9.3-.45 0-.9-.3-.9-.75h2.25v-.3c0-.9-.6-1.5-1.5-1.5zm7.95 1.5c0-.45.45-.9.9-.9s.9.45.9.9-.45.9-.9.9c-.45.15-.9-.3-.9-.9 0 .15 0 0 0 0zm2.4 0v-1.5h-.6v.3c-.3-.3-.6-.45-.9-.45-.9 0-1.65.75-1.65 1.5s.75 1.5 1.65 1.5c.3 0 .75-.15.9-.45v.3h.6v-1.2zm-6.15 0c0 .9.6 1.5 1.5 1.5h.15c.45 0 .75-.15 1.05-.3l-.3-.6c-.3.15-.45.3-.75.3-.45 0-.9-.45-.9-1.05 0-.45.45-.9.9-.9.3 0 .6.15.75.3l.3-.6c-.3-.3-.75-.3-1.05-.3-.9 0-1.5.6-1.65 1.5v.15zm8.55-1.5c-.3 0-.6.15-.75.45v-.3h-.6v3h.6v-1.65c0-.45.15-.75.6-.75h.45l.15-.6c-.15-.15-.3-.15-.45-.15zm-17.55.3c-.3-.15-.75-.3-1.2-.3-.75 0-1.2.3-1.2.9 0 .45.3.75 1.05.9h.3c.3 0 .45.15.45.3s-.3.3-.75.3c-.3 0-.75-.15-1.05-.3l-.3.45c.3.3.9.45 1.35.45.9 0 1.35-.45 1.35-.9s-.45-.75-1.05-.9h-.3c-.3 0-.45-.15-.45-.3s.15-.3.6-.3c.3 0 .6.15.9.3l.3-.6zm8.4-.3c-.3 0-.6.15-.75.45v-.3h-.6v3h.6v-1.65c0-.45.15-.75.6-.75h.45l.15-.6c-.15-.15-.3-.15-.45-.15zm-5.55 0H15.3v-.9h-.6v.9h-.6v.6h.6v1.35c0 .75.3 1.05 1.05 1.05.3 0 .6 0 .9-.3l-.15-.6c-.15.15-.3.15-.6.15s-.45-.15-.45-.45V26.4h1.05v-.45h-.15zm-9.75 3V27c0-.6-.45-1.2-1.05-1.2H5.4c-.45 0-.75.15-1.05.6-.15-.3-.6-.6-1.05-.6-.3 0-.75.15-.9.45v-.3h-.6v3h.6V27.3c0-.45.3-.75.6-.75h.15c.45 0 .6.3.6.75v1.65h.75V27.3c0-.45.3-.75.6-.75h.15c.45 0 .6.3.6.75v1.65h.75zM18.3 3.45c-2.55 2.1-4.05 5.25-4.05 8.55 0 3.3 1.5 6.45 4.05 8.55 2.55-2.1 4.05-5.25 4.05-8.55 0-3.3-1.5-6.45-4.05-8.55"/><path d="M.15 12c0 6.15 4.95 11.1 11.1 11.1 2.4 0 4.8-.75 6.6-2.25-2.7-2.25-4.2-5.4-4.2-8.85 0-3.45 1.5-6.6 4.2-8.85A10.65 10.65 0 0011.25.9C5.25.9.15 5.85.15 12M36.45 12C36.45 5.85 31.5.9 25.35.9c-2.4 0-4.8.75-6.6 2.25 2.7 2.25 4.2 5.4 4.2 8.85 0 3.45-1.5 6.6-4.2 8.85 1.95 1.5 4.2 2.25 6.6 2.25 6.15 0 11.1-4.95 11.1-11.1"/></g></svg>