<svg width="21" height="23" xmlns="http://www.w3.org/2000/svg"><g fill="none" fill-rule="evenodd"><path d="M.55 7.304l2.378 15.313h14.285l2.378-15.313H.551zm1.283 1.1h16.474L16.27 21.517H3.87L1.833 8.404z" fill="#020203"/><g fill="#020203" fill-rule="nonzero"><path d="M19.591 4.01a.5.5 0 01.09.993l-.09.008H.551a.5.5 0 01-.09-.992l.09-.008h19.04z"/><path d="M7.386 2.282C8.702.896 10.882.662 12.34 1.87c.59.488 1.06 1.102 1.591 1.991.077.129.15.26.224.397a.5.5 0 11-.882.471 9.23 9.23 0 00-.2-.356c-.478-.799-.887-1.333-1.371-1.733-1.037-.858-2.625-.688-3.592.33-.45.475-.846 1.05-1.246 1.781a.5.5 0 11-.877-.48c.438-.801.881-1.444 1.398-1.989z"/></g><path d="M7.178 18.45a.275.275 0 01-.39-.39l2.383-2.722-2.382-2.722a.275.275 0 01.389-.389L9.9 14.609l2.722-2.382a.275.275 0 01.39.389l-2.383 2.722 2.382 2.723a.275.275 0 01-.389.389L9.9 16.068 7.178 18.45z" fill="#181818"/></g></svg>