<svg width="57" height="18" xmlns="http://www.w3.org/2000/svg"><g fill="#FFF" fill-rule="evenodd"><path d="M16.95 0L12 12.75l-.45-2.4v-.15l-1.5-8.4C9.9.75 9.15.3 7.95.3H0v.75c1.5.3 3.15.6 4.5 1.2.45.15.6.6.75.9L9.45 18h4.65l7.5-18h-4.65zM19.95 18h4.65l3-18h-4.8zM41.25.75C40.2.3 38.85 0 37.5 0c-2.1 0-3.9.6-5.25 1.65-1.35 1.05-2.1 2.4-2.1 4.2 0 1.8 1.2 3.45 3.75 4.65.75.45 1.35.75 1.8 1.05.3.3.45.6.45 1.05 0 .6-.3.9-.75 1.2-.6.3-1.2.45-1.8.45-1.5 0-2.85-.3-4.05-.9l-.6-.3-.6 3.9c1.35.6 2.85.9 4.8.9 2.25 0 4.05-.45 5.4-1.65 1.35-1.05 2.1-2.55 2.1-4.35 0-1.95-1.2-3.45-3.6-4.65-.9-.45-1.5-.9-1.8-1.2-.3-.3-.6-.6-.6-1.05 0-.45.15-.75.6-1.05.45-.3 1.05-.45 1.8-.45 1.2 0 2.25.15 3.3.6l.45.45.45-3.75zM52.8.3h-3.3c-1.2 0-1.95.45-2.25 1.5L40.8 17.7h4.65l.9-2.55h5.55c.15.45.3 1.35.45 2.55h4.05L52.8.3zm-5.4 10.95c.3-.6.75-2.25 1.8-4.8v-.3c.15-.15.3-.45.3-.75.15-.3.15-.45.3-.75l.3 1.5 1.05 4.95-3.75.15z"/></g></svg>