<svg width="57" height="20" xmlns="http://www.w3.org/2000/svg"><g fill="#FFF" fill-rule="evenodd"><path d="M23.55 0v6.6h1.65V4.2h.75l1.95 2.25h1.95l-2.1-2.4c.9-.15 1.8-.75 1.8-1.95C29.55.75 28.5 0 27.3 0h-3.75zm1.65 1.5h1.95c.45 0 .75.3.75.75s-.3.75-.6.75h-1.95l-.15-1.5zM30.15 6.6h1.65V0h-1.65zM35.85 6.6h-.45c-1.65 0-2.85-1.35-2.85-3.3 0-1.95 1.05-3.3 3.3-3.3h1.8v1.5H35.7c-.9 0-1.5.75-1.5 1.8 0 1.35.75 1.8 1.8 1.8h.45l-.6 1.5zM39.3 0l-2.85 6.6h1.8l.45-1.35h3l.45 1.35h1.95L41.55 0H39.3zm1.05 1.5l.9 2.25h-1.8l.9-2.25zM44.55 6.6V0h1.95l2.7 4.2V0h1.65v6.6H48.9l-2.7-4.35V6.6zM12 18v-6.6h5.25v1.65H13.5v1.05h3.75v1.35H13.5v1.2h3.75V18zM38.1 18v-6.6h5.25v1.65h-3.6v1.05h3.6v1.35h-3.6v1.2h3.6V18zM17.55 18l2.55-3.15-2.7-3.45h2.1l1.65 2.25 1.5-2.25h1.95l-2.55 3.45L24.6 18h-2.1L21 16.05 19.5 18zM24.9 11.4V18h1.65v-2.1h1.65c1.5 0 2.55-.75 2.55-2.25 0-1.2-.9-2.25-2.25-2.25h-3.6zm1.5 1.65h1.8c.45 0 .75.3.75.75s-.3.75-.75.75h-1.8v-1.5zM31.5 11.4V18h1.65v-2.25h.75L35.85 18h1.95l-2.1-2.4c.9-.15 1.8-.75 1.8-1.95 0-1.35-1.05-2.1-2.25-2.1H31.5v-.15zm1.5 1.65h1.95c.45 0 .75.3.75.75s-.45.75-.75.75H33v-1.5c.15 0 0 0 0 0zM44.25 18v-1.35h3.3c.45 0 .75-.3.75-.45 0-.3-.15-.6-.75-.6h-1.5c-1.35 0-1.95-.75-1.95-1.95 0-1.05.75-2.1 2.7-2.1h3.15l-.75 1.5h-2.7c-.45 0-.75.3-.75.45 0 .3.15.6.6.6h1.5c1.35 0 1.95.75 1.95 1.95s-.75 2.1-2.1 2.1L44.25 18zM50.1 18v-1.35h3.3c.45 0 .75-.3.75-.45 0-.3-.15-.6-.75-.6h-1.5c-1.35 0-1.95-.75-1.95-1.95 0-1.05.75-2.1 2.55-2.1h3.15l-.75 1.5h-2.85c-.45 0-.75.3-.75.45 0 .3.15.6.6.6h1.5c1.35 0 1.95.75 1.95 1.95s-.75 2.1-2.1 2.1L50.1 18zM3.75 1.5l.9 2.25h-1.8l.9-2.25zM2.85 0L0 6.6h1.8l.45-1.35h3L5.7 6.6h1.95L4.95 0h-2.1zM13.5 0L12 4.2 10.5 0H7.95v6.6H9.6V1.65l1.8 4.95h1.35l1.65-4.95V6.6h1.8V0zM17.25 0v6.6h5.4V5.1H18.9V4.05h3.6v-1.5h-3.6V1.5h3.75V0z"/></g></svg>