<svg width="24" height="26" xmlns="http://www.w3.org/2000/svg"><defs><filter id="a"><feColorMatrix in="SourceGraphic" values="0 0 0 0 1.000000 0 0 0 0 1.000000 0 0 0 0 1.000000 0 0 0 1.000000 0"/></filter></defs><g transform="translate(-1007 -6776)" filter="url(#a)" fill="none" fill-rule="evenodd"><path d="M1019 6777.098c-4.058 0-7.333 3.372-7.333 7.55v2.714c-2.049.14-3.667 1.883-3.667 4.028 0 2.236 1.757 4.045 3.929 4.045h1.571c.137 0 .262-.129.262-.27v-7.55c0-.142-.125-.27-.262-.27h-1.31v-2.697c0-3.889 3.033-7.011 6.81-7.011 3.777 0 6.81 3.122 6.81 7.011v2.697h-1.31a.265.265 0 00-.262.27v7.55c0 .141.125.27.262.27h1.301c-.07.865-.491 1.678-1.301 2.317-.855.674-2.162 1.14-3.953 1.18-.131-.756-.776-1.34-1.547-1.34-.865 0-1.571.728-1.571 1.618 0 .89.706 1.618 1.571 1.618.78 0 1.426-.588 1.547-1.357 1.88-.039 3.305-.526 4.272-1.29.93-.733 1.426-1.72 1.498-2.755 2.056-.13 3.683-1.885 3.683-4.036 0-2.145-1.618-3.889-3.667-4.028v-2.714c0-4.178-3.275-7.55-7.333-7.55zm-7.071 10.786h1.31v7.011h-1.31c-1.891 0-3.405-1.558-3.405-3.505 0-1.947 1.514-3.506 3.405-3.506h0zm12.833 0h1.31c1.89 0 3.404 1.559 3.404 3.506 0 1.947-1.514 3.505-3.405 3.505h-1.31v-7.01zm-5.762 10.247c.582 0 1.048.48 1.048 1.079s-.466 1.079-1.048 1.079c-.582 0-1.048-.48-1.048-1.079s.466-1.079 1.048-1.079z" fill="#000" fill-rule="nonzero" stroke="#000" stroke-width=".9"/></g></svg>