<svg width="30" height="30" xmlns="http://www.w3.org/2000/svg"><path d="M13.55 0h2.901l2.509.017c.873.013 1.406.036 2.226.073 1.596.073 2.687.327 3.641.697a7.353 7.353 0 012.657 1.73 7.354 7.354 0 011.73 2.658c.34.874.582 1.863.676 3.252l.057 1.205c.036.914.05 1.73.054 3.878l-.008 4.738a64.66 64.66 0 01-.081 2.938c-.073 1.596-.327 2.687-.698 3.641a7.354 7.354 0 01-1.73 2.657 7.353 7.353 0 01-2.657 1.73c-.875.34-1.864.582-3.252.676l-1.205.057c-.915.036-1.73.05-3.879.054l-4.738-.008a64.6 64.6 0 01-2.937-.081c-1.597-.073-2.687-.327-3.641-.698a7.353 7.353 0 01-2.657-1.73 7.354 7.354 0 01-1.73-2.657c-.34-.875-.582-1.864-.676-3.252l-.065-1.403c-.03-.847-.043-1.7-.046-3.72l.006-4.49c.01-1.491.034-2.075.083-3.146.073-1.597.327-2.687.697-3.641a7.354 7.354 0 011.73-2.657A7.353 7.353 0 015.176.788C6.049.447 7.038.205 8.427.111L9.83.047c.848-.03 1.7-.043 3.721-.046zm4.661 2.71h-6.42c-1.292.012-1.85.034-2.852.08-1.462.067-2.257.311-2.785.517-.7.272-1.2.597-1.725 1.122a4.648 4.648 0 00-1.122 1.725l-.09.244c-.167.481-.338 1.162-.41 2.238l-.059 1.3c-.03.83-.041 1.657-.044 3.64l.007 4.654c.01 1.278.034 1.836.08 2.833.066 1.462.31 2.256.516 2.785.272.7.597 1.2 1.122 1.725.525.525 1.025.85 1.725 1.122l.244.09c.481.166 1.162.338 2.238.41l1.705.072c.766.021 1.677.03 3.56.031l3.79-.004a65.603 65.603 0 003.198-.075l.174-.007c1.462-.067 2.256-.312 2.785-.517.7-.272 1.2-.597 1.725-1.122a4.647 4.647 0 001.122-1.725l.09-.244c.166-.481.338-1.162.41-2.238l.072-1.705c.021-.766.03-1.678.032-3.56l-.005-3.79a66.41 66.41 0 00-.082-3.372c-.067-1.462-.312-2.257-.517-2.785-.272-.7-.597-1.2-1.122-1.725a4.648 4.648 0 00-1.725-1.122l-.244-.09c-.481-.167-1.162-.338-2.238-.41l-1.289-.059c-.527-.019-1.05-.03-1.866-.037zm-3.21 4.757a7.5 7.5 0 110 15 7.5 7.5 0 010-15zm0 2.632a4.869 4.869 0 100 9.737 4.869 4.869 0 000-9.737zm7.834-4.967a1.875 1.875 0 110 3.75 1.875 1.875 0 010-3.75z" fill="#FFF" fill-rule="evenodd"/></svg>