<svg width="38" height="30" xmlns="http://www.w3.org/2000/svg"><g fill="#FFF" fill-rule="evenodd"><path d="M28.05 18h3c.45-.15.9-.6.9-1.2s-.45-1.05-.9-1.2h-3V18z"/><path d="M30.45 1.35c-2.55 0-4.5 1.95-4.5 4.5v4.8h6.9c1.5.15 2.55.9 2.55 2.1 0 1.05-.75 1.95-2.1 2.1 1.5.15 2.55.9 2.55 2.25s-1.2 2.25-2.85 2.25h-7.05v9.3h6.6c2.55 0 4.5-2.1 4.5-4.5V1.35h-6.6z"/><path d="M31.65 13.05c0-.6-.45-1.05-.9-1.05H28.05v2.25H30.75c.45-.15.9-.6.9-1.2M5.25 1.35C2.7 1.35.75 3.3.75 5.85V17.1c1.35.6 2.55 1.05 3.9 1.05 1.65 0 2.4-.9 2.4-2.25v-5.25h3.9v5.25c0 2.1-1.35 3.75-5.55 3.75-2.7 0-4.65-.6-4.65-.6v9.6h6.6c2.55 0 4.5-2.1 4.5-4.5V1.35h-6.6zM17.85 1.35c-2.55 0-4.5 1.95-4.5 4.5v6c1.2-1.05 3.15-1.65 6.3-1.5 1.65.15 3.6.6 3.6.6v1.95c-.9-.45-2.1-.9-3.45-1.05-2.4-.15-3.9 1.05-3.9 3.15 0 2.1 1.5 3.3 3.9 3.15 1.35-.15 2.55-.6 3.45-1.05v1.95s-1.8.45-3.6.6c-3.15.15-5.25-.45-6.3-1.5v10.5h6.6c2.55 0 4.5-2.1 4.5-4.5V1.35h-6.6z"/></g></svg>