<?xml version="1.0" encoding="UTF-8"?>
<svg width="51px" height="30px" viewBox="0 0 51 30" version="1.1" xmlns="http://www.w3.org/2000/svg" xmlns:xlink="http://www.w3.org/1999/xlink">
    <title>1A1B5C90-5400-45F8-8151-A9A0F95D3A3D</title>
    <g id="Page-1" stroke="none" stroke-width="1" fill="none" fill-rule="evenodd">
        <g id="Style-guide-MOBILE" transform="translate(-900.000000, -7684.000000)" fill="#FFFFFF">
            <g id="pay-maestro-neg" transform="translate(900.000000, 7684.000000)">
                <path d="M24.1916782,18.7058207 C24.8071342,18.7080797 25.4201307,18.6285008 26.0143303,18.4691561 L26.3095118,16.9989701 C25.6668382,17.2563764 25.0904248,17.3702292 24.4477512,17.3702292 C23.4219645,17.3702292 22.8851577,17.0224831 22.8851577,16.344564 C22.8851577,16.2888751 22.8851577,16.2487792 22.9060819,16.1584394 L26.4584726,16.1584394 C26.6114189,15.5619498 26.677679,15.1431695 26.677679,14.7035987 C26.677679,13.4051819 25.7330983,12.5710864 24.2579383,12.5710864 C22.4562104,12.5710864 21.1300111,14.0571129 21.1300111,16.0720598 C21.1300111,17.7996522 22.1804586,18.7037919 24.19392,18.7037919 L24.1916782,18.7058207 Z M24.2335267,13.9165294 C24.769088,13.9165294 25.0697496,14.1947263 25.0697496,14.674393 L25.0697496,14.9731329 L23.0799525,14.9731329 C23.248592,14.2900161 23.6561168,13.9162819 24.2337758,13.9162819 L24.2335267,13.9165294 Z M33.5062103,16.6002378 C33.4813005,16.7061704 33.4813005,16.7863623 33.4813005,16.8420512 C33.4813005,17.1447511 33.6746008,17.2764244 34.1032989,17.2764244 C34.2980938,17.2764244 34.450791,17.261079 34.5735965,17.2207355 L34.3384477,18.52435 C33.8484714,18.6550332 33.4603762,18.7156722 33.0580825,18.7156722 C32.1329315,18.7156722 31.6444497,18.2565484 31.6444497,17.422453 C31.6444497,17.2608315 31.6643776,17.0848547 31.6850528,16.8972451 L32.7158215,11.3709295 L34.4913941,11.3709295 L34.2365665,12.7198376 L35.1549919,12.7198376 L34.8949333,14.1489376 L33.9765079,14.1489376 L33.5062103,16.5997428 L33.5062103,16.6002378 Z M29.9498341,12.5881643 C30.4873938,12.595592 31.0240482,12.6344351 31.5570163,12.7044922 L31.3021887,14.0637955 C30.826411,14.0081067 30.357608,13.9771684 29.9956682,13.9771684 C29.4127782,13.9771684 29.1175967,14.1387899 29.1175967,14.4518851 C29.1175967,14.7298344 29.2037848,14.7983936 29.949585,15.0934208 C30.8732415,15.4530471 31.2349322,15.9225661 31.2349322,16.7306735 C31.2349322,18.0691863 30.3568607,18.6909216 28.4283418,18.6909216 C28.193193,18.6909216 27.8718562,18.6703786 27.4483891,18.6404303 C27.2329191,18.625085 27.060294,18.6094921 26.9531817,18.5847415 L26.629354,18.5290526 L26.5421696,18.5134597 L26.8022282,17.1596015 C27.379638,17.3160253 27.8748454,17.3922572 28.4303346,17.3922572 C29.1357809,17.3922572 29.4573668,17.2254381 29.4573668,16.8620992 C29.4573668,16.5942976 29.3502545,16.5024729 28.6198984,16.2101682 C27.66087,15.8260388 27.2309263,15.3151862 27.2309263,14.5729155 C27.2309263,13.491314 27.9363727,12.5879168 29.9473431,12.5879168 L29.9498341,12.5881643 Z M21.7370637,21.3332964 L28.8879281,21.3332964 C28.6278695,21.888205 28.3314426,22.4198481 28.0046256,22.9420859 L22.6305792,22.9420859 C22.3042605,22.4223231 21.9978696,21.8906801 21.7368146,21.3332964 L21.7370637,21.3332964 Z M18.4564392,12.5881643 C17.7925923,12.5881643 17.2109478,12.6683563 16.3124503,12.8960619 L16.0773015,14.2202194 L16.2262623,14.1788859 L16.4863209,14.1194844 C16.869185,14.0172644 17.4453493,13.9578629 17.9614809,13.9578629 C18.7977039,13.9578629 19.1205353,14.0989414 19.1205353,14.488021 C19.1205353,14.5944486 19.0943799,14.6741455 19.0537769,14.8721504 C18.7780251,14.8412121 18.5182156,14.8256192 18.3234208,14.8256192 C16.3388547,14.8256192 15.1798004,15.6597147 15.1798004,17.0890623 C15.1798004,18.0394856 15.8436473,18.6966142 16.8079068,18.6966142 C17.6192199,18.6966142 18.2427129,18.4689086 18.6905916,17.9837967 L18.6499886,18.5941467 L20.1460729,18.5941467 L20.1660008,18.4325252 L20.186925,18.2308078 L20.2327591,17.9333055 L20.2942864,17.5620464 L20.6823815,15.4745802 C20.7894938,14.8241342 20.810418,14.6016262 20.810418,14.3132817 C20.810418,13.187129 19.9976103,12.5906394 18.4571865,12.5906394 L18.4564392,12.5881643 Z M17.5571944,17.4484411 C17.1494205,17.4484411 16.9145209,17.2157854 16.9145209,16.8470013 C16.9145209,16.2559568 17.4306525,15.9559727 18.4352659,15.9559727 C18.5719854,15.9557028 18.7085896,15.9638864 18.8442853,15.9804826 C18.7969566,16.8492289 18.2825686,17.4506686 17.5571944,17.4506686 L17.5571944,17.4484411 Z M25.3457505,26.086403 C25.3352884,26.1019959 25.3208407,26.1121437 25.3103786,26.1225389 C24.7486619,25.616884 24.2392559,25.0582628 23.7584962,24.4800886 L26.8876689,24.4800886 C26.4133858,25.0567778 25.9024852,25.5923809 25.3512307,26.0888781 L25.3462487,26.0888781 L25.3457505,26.086403 Z M27.9896797,7.02893043 L22.8495366,7.02893043 C23.1813355,6.48837717 23.5432753,5.93990371 23.9313704,5.42014096 L26.8097011,5.42014096 C27.2381502,5.93000347 27.6317255,6.4651116 27.9894306,7.02893043 L27.9896797,7.02893043 Z M29.5156558,10.2118585 L21.1392278,10.2118585 C21.2214302,10.0554347 21.5128752,9.42924433 21.9557719,8.60306906 L28.862271,8.60306906 C29.108928,9.12646523 29.3270388,9.66267977 29.5156558,10.2093835 L29.5156558,10.2118585 Z M15.7355387,11.3691969 L14.3219059,18.5921667 L12.5254091,18.5921667 L13.5965317,13.0361503 L11.1309569,18.5921667 L9.50285048,18.5921667 L9.20766901,13.0710487 L8.1350518,18.5921667 L6.5069454,18.5921667 L7.90114851,11.3691969 L10.7025078,11.3691969 L10.8357754,15.8441067 L12.8255725,11.3691969 L15.7350405,11.3691969 L15.7355387,11.3691969 Z M45.4743865,17.9503834 C45.4285525,17.9310779 45.3881985,17.9310779 45.3672743,17.9310779 L45.1948983,17.9310779 L45.1948983,18.3345128 L45.2810863,18.3345128 L45.2810863,18.1728914 L45.3426135,18.1728914 L45.4093719,18.3345128 L45.5164842,18.3345128 L45.4497258,18.1612586 C45.4955599,18.1407156 45.5164842,18.1003721 45.5164842,18.054831 C45.5164842,18.0134975 45.4955599,17.973154 45.4746356,17.952611 L45.4743865,17.9503834 Z M49.2307887,23.1183102 C49.1849546,23.0990047 49.1446007,23.0935596 49.1236764,23.0935596 L48.9513004,23.0935596 L48.9513004,23.5019446 L49.0374884,23.5019446 L49.0374884,23.3403232 L49.1015067,23.3403232 L49.1630339,23.5019446 L49.2701462,23.5019446 L49.2086189,23.3262153 C49.249222,23.3056723 49.2701462,23.2653288 49.2701462,23.2202827 C49.2701462,23.1789492 49.249222,23.1386057 49.2282977,23.1180627 L49.2307887,23.1183102 Z M49.5326958,23.5633261 C49.4891528,23.6383734 49.4252872,23.6997727 49.3483631,23.7405405 C49.2726372,23.7858341 49.1901857,23.8063771 49.1042468,23.8063771 C49.0220443,23.8063771 48.9408383,23.7858341 48.8638669,23.7405405 C48.788141,23.7004445 48.7268628,23.639558 48.6810288,23.5633261 C48.6391803,23.4883318 48.6142704,23.4069023 48.6142704,23.3212652 C48.6142704,23.2356281 48.6391803,23.1596437 48.6810288,23.0782142 C48.7268628,23.0032199 48.788141,22.9420859 48.8638669,22.9024849 C48.9460693,22.8559538 49.0220443,22.8364008 49.1042468,22.8364008 C49.1904348,22.8364008 49.2676552,22.8611514 49.3483631,22.9024849 C49.4245527,22.9418629 49.4869834,23.0032044 49.5274647,23.0784617 C49.5706547,23.1523137 49.593668,23.2360995 49.5942231,23.3215127 C49.5937118,23.4059556 49.5725995,23.4890159 49.5326958,23.5635736 L49.5326958,23.5633261 Z M50.6249945,14.9954084 C50.6299737,23.2801792 43.8465292,29.9947714 35.4765778,29.9999846 C31.7205495,30.0053281 28.0967873,28.622362 25.3101295,26.1200639 C22.622359,28.5273079 19.0577625,29.997494 15.1526487,29.997494 C6.78792827,29.997494 0,23.2789416 0,14.998131 C0,6.75370368 6.73661402,0.055446829 15.0555004,2.73281417e-06 L15.1521505,2.73281417e-06 C19.0575134,2.73281417e-06 22.6191207,1.46920152 25.3093822,3.87471304 C27.9946617,1.46895401 31.5612509,2.73281417e-06 35.4705994,2.73281417e-06 C43.8403018,-0.00494465281 50.6242445,6.70816256 50.6242445,14.9929333 L50.6242445,14.9978835 L50.6249945,14.9954084 Z M45.3426135,17.6734241 C45.087786,17.6734241 44.872316,17.8803392 44.872316,18.1325479 C44.872316,18.3847566 45.087786,18.5916716 45.3426135,18.5916716 C45.6026722,18.5916716 45.8168967,18.3847566 45.8168967,18.1325479 C45.8168967,17.8803392 45.6026722,17.6734241 45.3426135,17.6734241 Z M45.3426135,18.4817789 C45.1532989,18.4817789 44.9806737,18.3241176 44.9806737,18.1327954 C44.9806737,17.9414732 45.1530498,17.7838118 45.3426135,17.7838118 C45.5359138,17.7838118 45.6901057,17.9414732 45.6901057,18.1327954 C45.6901057,18.3241176 45.5356647,18.4817789 45.3426135,18.4817789 Z M45.1948983,15.1968783 C45.1948983,13.7068918 44.2097145,12.5455933 42.3464594,12.5455933 C40.2077015,12.5455933 38.8147439,13.958853 38.8147439,16.0413691 C38.8147439,17.5313556 39.626057,18.7490855 41.6619373,18.7490855 C43.5052646,18.7490855 44.8720669,17.8803392 45.1530498,15.9299913 C45.1948983,15.5834828 45.1948983,15.5612073 45.1948983,15.1966308 L45.1948983,15.1968783 Z M43.2270218,15.8799951 C43.0793065,16.7942825 42.2418381,17.3194904 41.858974,17.3194904 C41.2163005,17.3298857 40.8334364,16.7942825 40.8334364,15.996323 C40.8334364,15.0508498 41.389922,13.9801385 42.3085964,13.9801385 C43.0377071,13.9801385 43.2937802,14.5659854 43.2937802,15.1780679 C43.2937802,15.4305241 43.2728559,15.6681299 43.2270218,15.8802426 L43.2270218,15.8799951 Z M38.9243471,14.4251544 L38.7101226,14.3850584 C38.6229382,14.3746632 38.5611618,14.3694655 38.4958981,14.3694655 C37.6375054,14.3694655 37.3617536,15.000606 36.71908,18.5919191 L34.9225832,18.5919191 L36.0096481,12.7178575 L37.6377545,12.7178575 L37.4708586,13.6064043 C38.0263478,12.9146248 38.4547969,12.6520209 39.0322067,12.6520209 C39.0969011,12.6522487 39.1614973,12.6570459 39.225507,12.6663763 C39.225507,12.6713264 39.2922653,12.6819691 39.3744677,12.7025121 C39.3943956,12.7074623 39.4203018,12.7074623 39.567768,12.7685963 L38.9250944,14.4251544 L38.9243471,14.4251544 Z" id="Shape"></path>
            </g>
        </g>
    </g>
</svg>