<svg width="66" height="18" xmlns="http://www.w3.org/2000/svg"><g fill="#FFF" fill-rule="nonzero"><path d="M54.3 10.05c-.15.9-.9 1.35-1.8 1.35-.75 0-1.5-.6-1.05-1.5.45-.75 1.5-.9 2.25-.9h.9c-.15.45-.15.75-.3 1.05zm-.3-7.2c-1.65 0-3 .45-4.05.6L49.65 6c.45-.3 2.1-.75 3.45-.75s2.1.3 1.8 1.35c-4.05 0-6.75.9-7.2 3.45-.75 4.35 4.05 4.35 6 2.4l-.3 1.05H57l1.5-7.05c.75-3-1.95-3.75-4.5-3.6zM61.65 0l-3 13.5h3.6l3-13.5zM45 4.65c-.3 1.05-1.2 1.8-2.25 1.8h-1.8l.75-3.75h1.95c1.05.15 1.5.9 1.35 1.95zM45.15 0h-6.6l-3 13.5h3.9L40.5 9h2.7c2.7 0 4.95-1.65 5.55-4.35.6-3.15-1.8-4.65-3.6-4.65zM19.65 10.05c-.15.9-.9 1.35-1.8 1.35-.75 0-1.5-.6-.9-1.5.45-.75 1.5-.9 2.1-.9h.9c-.15.45-.15.75-.3 1.05zm-.15-7.2c-1.65 0-3 .45-3.9.6L15.15 6c.45-.3 2.1-.75 3.45-.75s2.1.3 1.8 1.35c-3.9 0-6.6.9-7.2 3.45-.75 4.35 4.05 4.35 5.85 2.4l-.3 1.05h3.6l1.5-7.05c.75-3-1.95-3.75-4.35-3.6zM25.5 3h3.6l.6 6.3L33.15 3h3.6l-8.4 15h-3.9L27 13.65zM10.5 4.65c-.3 1.05-1.2 1.8-2.25 1.8h-1.8l.9-3.75H9.3c.9.15 1.5.9 1.2 1.95zM10.65 0h-6.6l-3 13.5h3.9l.9-4.5H8.7c2.7 0 4.8-1.65 5.4-4.35C14.85 1.5 12.6 0 10.65 0z"/></g></svg>