<svg width="22" height="26" xmlns="http://www.w3.org/2000/svg" xmlns:xlink="http://www.w3.org/1999/xlink"><defs><path d="M0 .374L22 0v14.092h-2.214l.155 1.096a.833.833 0 01-.825.951l-9.554.322v7.191c0 .508-.408.92-.915.927l-.98.012-.948.957H0V.374z" id="a"/></defs><g fill="none" fill-rule="evenodd"><g><mask id="b" fill="#fff"><use xlink:href="#a"/></mask><path d="M10.963 1.5c2.91 0 5.16 2.263 5.262 5.82v.053l1.73.001a1 1 0 01.99.859L21.12 23.45a1 1 0 01-.99 1.141H1.529a1 1 0 01-.99-1.141L2.713 8.233a1 1 0 01.99-.859h1.972C5.856 3.81 8.088 1.5 10.963 1.5zm6.993 6.874H16.26v.913c0 .49-.37.895-.845.95l-.112.007v-1.87h-8.61l.002 1.87a.957.957 0 01-.957-.957v-.914l-2.036.001-2.174 15.217h18.6L17.957 8.374zM10.963 2.5c-2.309 0-4.116 1.855-4.287 4.873h8.549v-.058c-.1-3.003-1.91-4.815-4.262-4.815z" fill="#000" fill-rule="nonzero" mask="url(#b)"/></g><path d="M9.808 19.002c-.407 2.57 1.378 4.987 3.987 5.4 2.609.414 5.053-1.334 5.46-3.903.398-2.51-1.296-4.876-3.807-5.369l1.67-2.306-3.042 1.913-.008.005a.716.716 0 00-.174 1.027l.04.05 2.278 2.73-.873-2.702c2.107.431 3.524 2.423 3.19 4.537-.345 2.174-2.413 3.653-4.62 3.303-2.173-.344-3.67-2.331-3.39-4.466l.016-.104-.727-.115z" fill="#000"/></g></svg>