<svg width="31" height="27" xmlns="http://www.w3.org/2000/svg"><defs><filter id="a"><feColorMatrix in="SourceGraphic" values="0 0 0 0 1.000000 0 0 0 0 1.000000 0 0 0 0 1.000000 0 0 0 1.000000 0"/></filter></defs><g transform="translate(-68 -15)" filter="url(#a)" fill="none" fill-rule="evenodd"><path d="M77.75 41.1A18.002 18.002 0 0168 38.241c.498.059 1.004.089 1.517.089 2.98 0 5.722-1.017 7.899-2.723a6.366 6.366 0 01-5.941-4.417 6.351 6.351 0 002.872-.109 6.364 6.364 0 01-5.102-6.236v-.08a6.335 6.335 0 002.881.796 6.357 6.357 0 01-2.829-5.294 6.33 6.33 0 01.861-3.198 18.056 18.056 0 0013.11 6.645 6.36 6.36 0 016.195-7.81c1.829.001 3.482.774 4.642 2.01a12.737 12.737 0 004.039-1.544 6.38 6.38 0 01-2.797 3.519A12.717 12.717 0 0099 18.889a12.927 12.927 0 01-3.174 3.292c.013.273.019.547.019.823 0 8.404-6.397 18.095-18.096 18.095" fill="#181818"/></g></svg>